# XSI Wavefront OBJ Export v3.0
# File Created: Tue Aug 09 16:40:08 2016
# XSI Version: 13.0.114.0
mtllib menu-grid.mtl

o menu-mesh
# Hierarchy (from self to top father)
g menu-mesh

#begin 11 vertices
v 38.332937 6.887198 -35.638265
v 59.958206 -2.466934 -10.736764
v 67.648936 3.336407 -38.086047
v 47.024713 1.060165 -55.586759
v 58.014356 1.056407 -55.512776
v 81.620884 -0.607407 -44.340612
v 81.658886 1.096609 -55.409193
v 81.639224 -0.600169 -20.097236
v 38.524644 -0.268759 -20.979043
v 19.743022 -0.715809 -30.408878
v 22.211168 1.067210 -55.481865
#end 11 vertices

#begin 30 normals
vn -0.054266 0.997732 0.039837
vn 0.008561 0.954072 0.299456
vn 0.116804 0.992867 -0.023911
vn -0.054266 0.997732 0.039837
vn 0.116804 0.992867 -0.023911
vn 0.032525 0.975473 -0.217704
vn 0.032525 0.975473 -0.217704
vn 0.116804 0.992867 -0.023911
vn 0.057943 0.996040 -0.067428
vn 0.116804 0.992867 -0.023911
vn 0.149836 0.988432 -0.023471
vn 0.057943 0.996040 -0.067428
vn 0.057943 0.996040 -0.067428
vn 0.149836 0.988432 -0.023471
vn -0.002347 0.988355 0.152150
vn 0.116804 0.992867 -0.023911
vn 0.140822 0.984356 0.105891
vn 0.149836 0.988432 -0.023471
vn 0.008561 0.954072 0.299456
vn 0.140822 0.984356 0.105891
vn 0.116804 0.992867 -0.023911
vn -0.117307 0.891835 0.436887
vn 0.008561 0.954072 0.299456
vn -0.054266 0.997732 0.039837
vn -0.371277 0.928055 0.029449
vn -0.054266 0.997732 0.039837
vn -0.191800 0.972852 -0.129504
vn -0.191800 0.972852 -0.129504
vn -0.054266 0.997732 0.039837
vn 0.032525 0.975473 -0.217704
#end 30 vertex normals

#begin texture vertices
vt 0.722926 0.884557 0.000000
vt 0.852477 0.753421 0.000000
vt 0.898628 0.897250 0.000000
vt 0.774824 0.988799 0.000000
vt 0.840726 0.988447 0.000000
vt 0.982291 0.929827 0.000000
vt 0.982516 0.987983 0.000000
vt 0.982499 0.802701 0.000000
vt 0.723959 0.807207 0.000000
vt 0.611283 0.856563 0.000000
vt 0.626026 0.988168 0.000000
#end 11 texture vertices

#begin 10 faces
usemtl previewmaterial
f 1/1/1 2/2/2 3/3/3 
usemtl previewmaterial
f 1/1/4 3/3/5 4/4/6 
usemtl previewmaterial
f 4/4/7 3/3/8 5/5/9 
usemtl previewmaterial
f 3/3/10 6/6/11 5/5/12 
usemtl previewmaterial
f 5/5/13 6/6/14 7/7/15 
usemtl previewmaterial
f 3/3/16 8/8/17 6/6/18 
usemtl previewmaterial
f 2/2/19 8/8/20 3/3/21 
usemtl previewmaterial
f 9/9/22 2/2/23 1/1/24 
usemtl previewmaterial
f 10/10/25 1/1/26 11/11/27 
usemtl previewmaterial
f 11/11/28 1/1/29 4/4/30 
#end 10 faces
