# XSI Wavefront OBJ Export v3.0
# File Created: Tue Aug 02 15:00:22 2016
# XSI Version: 13.0.114.0
mtllib three_bg-tri-grid.mtl

o bg-tri-grid
# Hierarchy (from self to top father)
g bg-tri-grid

#begin 81 vertices
v -79.215366 1.177140 -91.800197
v -79.199826 2.313246 -77.355211
v -79.182855 2.306286 -48.578662
v -79.220461 2.234961 -31.195580
v -79.200613 2.681326 -4.623764
v -79.211671 2.111515 19.474866
v -79.212326 2.460214 49.113699
v -79.209862 2.271051 74.094486
v -79.186564 2.175777 92.801706
v -70.767552 0.635275 -91.961486
v -60.701768 9.579299 -67.062443
v -64.020128 2.904173 -39.996114
v -72.389625 6.879875 -32.438252
v -51.772262 3.489415 -4.090120
v -56.750114 7.391928 16.204763
v -55.148803 1.664847 44.698522
v -60.661366 1.379356 65.617517
v -70.827544 2.626244 92.771205
v -39.660049 0.825214 -91.982761
v -36.555791 -0.706964 -66.434934
v -39.564092 -3.137607 -41.862546
v -36.641322 -8.770974 -28.434257
v -37.348384 -3.605443 0.478394
v -44.913704 9.900503 31.191987
v -40.291977 -2.859147 51.092066
v -37.228979 0.322549 63.034996
v -43.689479 -4.229855 92.738071
v -10.149312 1.602632 -92.037985
v -24.268348 8.700309 -73.220057
v -18.366672 -3.182290 -41.392912
v -13.734913 -5.363612 -16.227045
v -23.871436 -9.036908 -4.163014
v -25.224609 -1.618320 20.194769
v -23.086976 2.638466 39.100202
v -25.251662 0.488198 67.033655
v -16.204628 0.250993 92.786005
v 11.386303 1.340335 -91.940897
v 1.762179 0.942540 -70.717961
v -1.394988 -0.485301 -45.421742
v 0.231810 -0.249864 -18.335604
v -9.193623 1.871674 -8.533808
v 4.962798 5.935872 23.017345
v -12.420572 -2.234753 40.027821
v -7.523247 -6.119244 67.608461
v 0.347121 -6.663865 92.842272
v 22.211168 0.809910 -92.035360
v 19.743022 -0.715809 -66.962373
v 21.913015 -10.522483 -48.065495
v 18.253167 -3.871282 -22.599172
v 18.035840 0.098129 8.017995
v 11.742951 -4.285610 22.781279
v 8.544417 -7.224163 55.667058
v 16.859245 11.747936 72.403842
v 20.444743 -6.437398 92.743572
v 47.024713 1.147271 -92.140254
v 40.497900 6.741974 -65.580059
v 40.845195 -0.268759 -49.075620
v 26.892093 -8.907416 -19.328011
v 36.296717 -4.225102 0.181291
v 35.101747 1.246844 20.571260
v 31.834971 -4.132082 43.212900
v 37.780624 -9.866849 73.893927
v 45.010766 9.677622 92.686770
v 58.014356 1.327207 -92.066271
v 66.786900 1.630722 -70.900673
v 59.230445 -2.466934 -43.193060
v 68.053158 3.483596 -23.437822
v 67.580237 0.828994 -2.594786
v 72.858666 -4.673730 24.215406
v 61.261038 6.515481 39.546670
v 51.872755 0.410570 60.436231
v 57.501209 9.548379 92.822342
v 81.691265 0.983023 -91.962688
v 81.713544 -0.872166 -61.348466
v 81.708938 -0.606766 -38.683492
v 81.694516 -1.249968 -29.964346
v 81.683690 -0.973961 2.787082
v 81.685725 -0.522699 13.800173
v 81.682804 -0.675349 46.510676
v 81.709329 -0.638286 55.019496
v 81.709961 -0.930578 92.888828
#end 81 vertices

#begin 384 normals
vn 0.053025 0.932788 -0.356504
vn -0.328820 0.941513 -0.073697
vn 0.053025 0.932788 -0.356504
vn 0.053025 0.932788 -0.356504
vn -0.438442 0.883638 0.164170
vn -0.039551 0.999217 0.000265
vn -0.438442 0.883638 0.164170
vn -0.438442 0.883638 0.164170
vn 0.148210 0.933378 -0.326863
vn -0.562033 0.827112 0.002178
vn 0.148210 0.933378 -0.326863
vn 0.148210 0.933378 -0.326863
vn -0.455029 0.782752 0.424557
vn -0.029119 0.999435 -0.016767
vn -0.455029 0.782752 0.424557
vn -0.455029 0.782752 0.424557
vn -0.025100 0.980541 -0.194705
vn -0.225624 0.973945 0.022925
vn -0.000724 0.981976 -0.189002
vn -0.000724 0.981976 -0.189002
vn -0.195830 0.959226 0.203804
vn 0.039895 0.999183 0.006424
vn -0.195830 0.959226 0.203804
vn -0.195830 0.959226 0.203804
vn 0.039895 0.999183 0.006424
vn 0.010117 0.999924 -0.006988
vn 0.046484 0.998207 0.037709
vn 0.038717 0.999170 0.012659
vn 0.010117 0.999924 -0.006988
vn -0.053792 0.998539 0.005152
vn -0.010586 0.999842 -0.014264
vn 0.046484 0.998207 0.037709
vn -0.006053 0.998144 0.060597
vn 0.361400 0.821437 -0.441171
vn -0.006053 0.998144 0.060597
vn -0.006053 0.998144 0.060597
vn 0.385179 0.912552 0.137424
vn 0.250323 0.922320 0.294387
vn 0.385179 0.912552 0.137424
vn 0.385179 0.912552 0.137424
vn 0.250323 0.922320 0.294387
vn 0.437626 0.886884 -0.148052
vn 0.250088 0.911057 0.327768
vn 0.250323 0.922320 0.294387
vn 0.437626 0.886884 -0.148052
vn 0.490270 0.834247 -0.252322
vn 0.392517 0.890036 -0.231877
vn 0.379655 0.917997 -0.114647
vn 0.490270 0.834247 -0.252322
vn -0.000724 0.981976 -0.189002
vn 0.408703 0.873154 -0.265640
vn 0.392517 0.890036 -0.231877
vn -0.719781 0.496301 0.485388
vn 0.214441 0.959844 0.180872
vn -0.719781 0.496301 0.485388
vn -0.719781 0.496301 0.485388
vn 0.402249 0.853752 -0.330611
vn 0.046484 0.998207 0.037709
vn 0.402249 0.853752 -0.330611
vn 0.402249 0.853752 -0.330611
vn 0.046484 0.998207 0.037709
vn 0.244724 0.968446 0.047152
vn 0.062523 0.984398 0.164472
vn 0.055360 0.993879 0.095598
vn -0.025164 0.928981 -0.369270
vn -0.562015 0.818754 0.117392
vn -0.025164 0.928981 -0.369270
vn -0.025164 0.928981 -0.369270
vn -0.417702 0.823097 0.384756
vn 0.000052 0.995724 0.092375
vn -0.417702 0.823097 0.384756
vn -0.417702 0.823097 0.384756
vn 0.000052 0.995724 0.092375
vn -0.351135 0.833711 0.426181
vn 0.000188 0.996267 0.086320
vn 0.000052 0.995724 0.092375
vn -0.208506 0.970590 0.120336
vn 0.392517 0.890036 -0.231877
vn -0.208506 0.970590 0.120336
vn -0.208506 0.970590 0.120336
vn 0.392517 0.890036 -0.231877
vn 0.408703 0.873154 -0.265640
vn 0.359231 0.894878 -0.264853
vn 0.301427 0.929509 -0.212497
vn 0.408703 0.873154 -0.265640
vn 0.092944 0.847843 0.522039
vn 0.402605 0.882210 -0.244163
vn 0.359231 0.894878 -0.264853
vn -0.270198 0.961341 0.053064
vn 0.078702 0.958094 -0.275429
vn -0.270198 0.961341 0.053064
vn -0.270198 0.961341 0.053064
vn -0.089925 0.993763 0.065938
vn -0.160026 0.980339 0.115444
vn -0.089925 0.993763 0.065938
vn -0.019146 0.999690 0.015934
vn 0.012066 0.999634 0.024208
vn 0.294916 0.945869 -0.135485
vn 0.046210 0.998144 0.039664
vn 0.047280 0.997714 0.048287
vn 0.276664 0.956879 0.088541
vn -0.062684 0.931130 0.359259
vn 0.340704 0.935326 0.095317
vn 0.340704 0.935326 0.095317
vn -0.156750 0.987638 0.000830
vn -0.321658 0.936394 0.140366
vn -0.156750 0.987638 0.000830
vn -0.156750 0.987638 0.000830
vn -0.362110 0.776154 -0.516200
vn -0.624905 0.718050 -0.306428
vn -0.362110 0.776154 -0.516200
vn -0.362110 0.776154 -0.516200
vn -0.561448 0.814349 0.147013
vn -0.205814 0.932890 -0.295562
vn -0.561448 0.814349 0.147013
vn -0.561448 0.814349 0.147013
vn -0.255185 0.947192 0.194185
vn 0.402605 0.882210 -0.244163
vn -0.255185 0.947192 0.194185
vn -0.255185 0.947192 0.194185
vn 0.378161 0.922536 0.076950
vn 0.344727 0.933513 0.098575
vn 0.378161 0.922536 0.076950
vn 0.410950 0.909986 0.055194
vn 0.366702 0.924091 -0.107638
vn 0.382775 0.915203 -0.126042
vn 0.366702 0.924091 -0.107638
vn 0.350382 0.932353 -0.089160
vn 0.047280 0.997714 0.048287
vn 0.046210 0.998144 0.039664
vn 0.064857 0.996071 0.060295
vn 0.049407 0.996628 0.065509
vn -0.014687 0.886809 0.461903
vn 0.340704 0.935326 0.095317
vn -0.014687 0.886809 0.461903
vn -0.014687 0.886809 0.461903
vn 0.371020 0.910135 -0.184385
vn 0.160839 0.983681 -0.080639
vn 0.371020 0.910135 -0.184385
vn 0.371020 0.910135 -0.184385
vn 0.160839 0.983681 -0.080639
vn 0.122626 0.987810 -0.095888
vn 0.146959 0.977747 -0.149714
vn 0.179078 0.979669 -0.090445
vn -0.088373 0.964532 0.248734
vn 0.757323 0.511721 -0.405713
vn -0.149070 0.972084 0.181194
vn -0.148731 0.963476 0.222693
vn 0.827712 0.546055 0.129298
vn -0.063034 0.923231 0.379039
vn 0.827712 0.546055 0.129298
vn 0.827712 0.546055 0.129298
vn 0.611768 0.355346 -0.706731
vn -0.604412 0.767015 0.215349
vn 0.552557 0.422456 -0.718478
vn 0.559292 0.396909 -0.727775
vn -0.542572 0.576430 0.611019
vn -0.011141 0.999624 0.025050
vn -0.481506 0.609494 0.629816
vn -0.481506 0.609494 0.629816
vn -0.014178 0.977720 -0.209433
vn -0.339466 0.940317 0.023803
vn -0.014178 0.977720 -0.209433
vn -0.014178 0.977720 -0.209433
vn -0.370815 0.829958 0.416731
vn -0.404502 0.791923 0.457424
vn -0.370815 0.829958 0.416731
vn -0.335557 0.864478 0.374273
vn -0.474630 0.879574 0.032802
vn 0.537678 0.831465 -0.139887
vn -0.474630 0.879574 0.032802
vn -0.474630 0.879574 0.032802
vn 0.570767 0.692427 -0.441328
vn 0.146959 0.977747 -0.149714
vn 0.570767 0.692427 -0.441328
vn 0.570767 0.692427 -0.441328
vn 0.146959 0.977747 -0.149714
vn -0.149070 0.972084 0.181194
vn 0.146591 0.957509 -0.248370
vn 0.157127 0.965487 -0.207715
vn -0.149070 0.972084 0.181194
vn -0.059205 0.989096 0.134850
vn -0.231558 0.957658 0.171089
vn -0.244380 0.950881 0.190010
vn -0.059205 0.989096 0.134850
vn 0.552557 0.422456 -0.718478
vn -0.029181 0.981521 0.189117
vn -0.231558 0.957658 0.171089
vn 0.552557 0.422456 -0.718478
vn -0.481506 0.609494 0.629816
vn 0.537825 0.472435 -0.698247
vn 0.521246 0.454740 -0.722160
vn -0.016320 0.999838 -0.007574
vn 0.155527 0.973635 -0.166870
vn -0.016320 0.999838 -0.007574
vn -0.016320 0.999838 -0.007574
vn 0.226247 0.952766 0.202606
vn -0.015148 0.920184 0.391193
vn 0.226247 0.952766 0.202606
vn 0.226247 0.952766 0.202606
vn 0.226738 0.899972 -0.372344
vn -0.273618 0.952726 0.132081
vn 0.190823 0.913124 -0.360266
vn 0.190823 0.913124 -0.360266
vn -0.273618 0.952726 0.132081
vn -0.170729 0.973621 -0.151372
vn -0.275765 0.954287 0.115282
vn -0.273618 0.952726 0.132081
vn -0.135935 0.964876 0.224801
vn 0.146591 0.957509 -0.248370
vn -0.156536 0.960982 0.228058
vn -0.156536 0.960982 0.228058
vn 0.180985 0.854570 -0.486780
vn -0.231558 0.957658 0.171089
vn 0.180985 0.854570 -0.486780
vn 0.180985 0.854570 -0.486780
vn -0.231558 0.957658 0.171089
vn -0.408786 0.879515 0.243614
vn -0.367090 0.911249 0.186734
vn -0.319430 0.935272 0.152417
vn -0.647240 0.755604 -0.100710
vn 0.014994 0.690145 -0.723516
vn -0.647240 0.755604 -0.100710
vn -0.647240 0.755604 -0.100710
vn 0.014244 0.998068 0.060471
vn 0.202898 0.977299 -0.060983
vn 0.014244 0.998068 0.060471
vn 0.014244 0.998068 0.060471
vn 0.202898 0.977299 -0.060983
vn -0.101055 0.990313 0.095224
vn 0.172512 0.984940 -0.011498
vn 0.202898 0.977299 -0.060983
vn -0.101055 0.990313 0.095224
vn 0.190823 0.913124 -0.360266
vn -0.096800 0.992618 0.073064
vn -0.101055 0.990313 0.095224
vn 0.324455 0.945868 -0.007864
vn 0.077674 0.988768 0.127693
vn 0.324455 0.945868 -0.007864
vn 0.324455 0.945868 -0.007864
vn 0.141913 0.989048 -0.040552
vn -0.156536 0.960982 0.228058
vn 0.141913 0.989048 -0.040552
vn 0.141913 0.989048 -0.040552
vn -0.421495 0.906821 0.004194
vn 0.409070 0.856240 -0.315460
vn -0.421495 0.906821 0.004194
vn -0.421495 0.906821 0.004194
vn 0.333684 0.942671 -0.005146
vn 0.090685 0.944184 0.316691
vn 0.333684 0.942671 -0.005146
vn 0.333684 0.942671 -0.005146
vn 0.036529 0.999303 0.007712
vn 0.378174 0.871690 -0.311673
vn 0.036529 0.999303 0.007712
vn 0.036529 0.999303 0.007712
vn -0.328820 0.941513 -0.073697
vn -0.328820 0.941513 -0.073697
vn -0.039551 0.999217 0.000265
vn -0.039551 0.999217 0.000265
vn -0.562033 0.827112 0.002178
vn -0.562033 0.827112 0.002178
vn -0.029119 0.999435 -0.016767
vn -0.029119 0.999435 -0.016767
vn -0.225624 0.973945 0.022925
vn -0.225624 0.973945 0.022925
vn 0.030877 0.999454 -0.011758
vn 0.038717 0.999170 0.012659
vn 0.039895 0.999183 0.006424
vn 0.046484 0.998207 0.037709
vn 0.010117 0.999924 -0.006988
vn -0.010586 0.999842 -0.014264
vn 0.361400 0.821437 -0.441171
vn 0.361400 0.821437 -0.441171
vn 0.250247 0.932439 0.260640
vn 0.250323 0.922320 0.294387
vn 0.403977 0.914155 -0.033517
vn 0.379655 0.917997 -0.114647
vn 0.437626 0.886884 -0.148052
vn 0.392517 0.890036 -0.231877
vn -0.000724 0.981976 -0.189002
vn 0.023652 0.982795 -0.183181
vn 0.214441 0.959844 0.180872
vn 0.214441 0.959844 0.180872
vn 0.038717 0.999170 0.012659
vn 0.055360 0.993879 0.095598
vn 0.244724 0.968446 0.047152
vn 0.244724 0.968446 0.047152
vn -0.562015 0.818754 0.117392
vn -0.562015 0.818754 0.117392
vn -0.000083 0.995144 0.098427
vn 0.000052 0.995724 0.092375
vn -0.351135 0.833711 0.426181
vn -0.351135 0.833711 0.426181
vn 0.379655 0.917997 -0.114647
vn 0.301427 0.929509 -0.212497
vn 0.392517 0.890036 -0.231877
vn 0.359231 0.894878 -0.264853
vn 0.092944 0.847843 0.522039
vn 0.092944 0.847843 0.522039
vn 0.078702 0.958094 -0.275429
vn 0.078702 0.958094 -0.275429
vn -0.089925 0.993763 0.065938
vn -0.089925 0.993763 0.065938
vn 0.294916 0.945869 -0.135485
vn 0.294916 0.945869 -0.135485
vn -0.062684 0.931130 0.359259
vn -0.062684 0.931130 0.359259
vn -0.321658 0.936394 0.140366
vn -0.321658 0.936394 0.140366
vn -0.624905 0.718050 -0.306428
vn -0.624905 0.718050 -0.306428
vn -0.205814 0.932890 -0.295562
vn -0.205814 0.932890 -0.295562
vn 0.359231 0.894878 -0.264853
vn 0.420464 0.873804 -0.244289
vn 0.378161 0.922536 0.076950
vn 0.378161 0.922536 0.076950
vn 0.366702 0.924091 -0.107638
vn 0.366702 0.924091 -0.107638
vn 0.047280 0.997714 0.048287
vn 0.064857 0.996071 0.060295
vn 0.340704 0.935326 0.095317
vn 0.403173 0.909460 0.101654
vn 0.192404 0.981110 -0.020084
vn 0.179078 0.979669 -0.090445
vn 0.160839 0.983681 -0.080639
vn 0.146959 0.977747 -0.149714
vn 0.757323 0.511721 -0.405713
vn 0.757323 0.511721 -0.405713
vn -0.063034 0.923231 0.379039
vn -0.063034 0.923231 0.379039
vn -0.604412 0.767015 0.215349
vn -0.604412 0.767015 0.215349
vn -0.011141 0.999624 0.025050
vn -0.011141 0.999624 0.025050
vn -0.339466 0.940317 0.023803
vn -0.339466 0.940317 0.023803
vn -0.370815 0.829958 0.416731
vn -0.370815 0.829958 0.416731
vn 0.537678 0.831465 -0.139887
vn 0.537678 0.831465 -0.139887
vn 0.179078 0.979669 -0.090445
vn 0.157127 0.965487 -0.207715
vn -0.148731 0.963476 0.222693
vn -0.244380 0.950881 0.190010
vn -0.149070 0.972084 0.181194
vn -0.231558 0.957658 0.171089
vn 0.559292 0.396909 -0.727775
vn 0.521246 0.454740 -0.722160
vn -0.481506 0.609494 0.629816
vn -0.417949 0.639404 0.645354
vn 0.155527 0.973635 -0.166870
vn 0.155527 0.973635 -0.166870
vn -0.015148 0.920184 0.391193
vn -0.015148 0.920184 0.391193
vn -0.271392 0.950890 0.148841
vn -0.273618 0.952726 0.132081
vn -0.170729 0.973621 -0.151372
vn -0.170729 0.973621 -0.151372
vn 0.157127 0.965487 -0.207715
vn 0.173272 0.953711 -0.245788
vn -0.244380 0.950881 0.190010
vn -0.319430 0.935272 0.152417
vn -0.231558 0.957658 0.171089
vn -0.367090 0.911249 0.186734
vn 0.014994 0.690145 -0.723516
vn 0.014994 0.690145 -0.723516
vn 0.232588 0.966305 -0.110258
vn 0.202898 0.977299 -0.060983
vn -0.105258 0.987499 0.117334
vn -0.101055 0.990313 0.095224
vn 0.190823 0.913124 -0.360266
vn 0.154600 0.924807 -0.347608
vn 0.077674 0.988768 0.127693
vn 0.077674 0.988768 0.127693
vn -0.156536 0.960982 0.228058
vn -0.177066 0.956655 0.231212
vn 0.409070 0.856240 -0.315460
vn 0.409070 0.856240 -0.315460
vn 0.090685 0.944184 0.316691
vn 0.090685 0.944184 0.316691
vn 0.378174 0.871690 -0.311673
vn 0.378174 0.871690 -0.311673
#end 384 vertex normals

#begin 128 faces
usemtl material1
f 1//1 11//3 10//4 
usemtl material1
f 2//5 12//7 11//8 
usemtl material1
f 3//9 13//11 12//12 
usemtl material1
f 4//13 14//15 13//16 
usemtl material1
f 5//17 15//19 14//20 
usemtl material1
f 6//21 16//23 15//24 
usemtl material1
f 7//25 17//27 16//28 
usemtl material1
f 8//29 18//31 17//32 
usemtl material1
f 10//33 20//35 19//36 
usemtl material1
f 11//37 21//39 20//40 
usemtl material1
f 12//41 22//43 21//44 
usemtl material1
f 13//45 23//47 22//48 
usemtl material1
f 14//49 24//51 23//52 
usemtl material1
f 15//53 25//55 24//56 
usemtl material1
f 16//57 26//59 25//60 
usemtl material1
f 17//61 27//63 26//64 
usemtl material1
f 19//65 29//67 28//68 
usemtl material1
f 20//69 30//71 29//72 
usemtl material1
f 21//73 31//75 30//76 
usemtl material1
f 22//77 32//79 31//80 
usemtl material1
f 23//81 33//83 32//84 
usemtl material1
f 24//85 34//87 33//88 
usemtl material1
f 25//89 35//91 34//92 
usemtl material1
f 26//93 36//95 35//96 
usemtl material1
f 28//97 38//99 37//100 
usemtl material1
f 29//101 39//103 38//104 
usemtl material1
f 30//105 40//107 39//108 
usemtl material1
f 31//109 41//111 40//112 
usemtl material1
f 32//113 42//115 41//116 
usemtl material1
f 33//117 43//119 42//120 
usemtl material1
f 34//121 44//123 43//124 
usemtl material1
f 35//125 45//127 44//128 
usemtl material1
f 37//129 47//131 46//132 
usemtl material1
f 38//133 48//135 47//136 
usemtl material1
f 39//137 49//139 48//140 
usemtl material1
f 40//141 50//143 49//144 
usemtl material1
f 41//145 51//147 50//148 
usemtl material1
f 42//149 52//151 51//152 
usemtl material1
f 43//153 53//155 52//156 
usemtl material1
f 44//157 54//159 53//160 
usemtl material1
f 46//161 56//163 55//164 
usemtl material1
f 47//165 57//167 56//168 
usemtl material1
f 48//169 58//171 57//172 
usemtl material1
f 49//173 59//175 58//176 
usemtl material1
f 50//177 60//179 59//180 
usemtl material1
f 51//181 61//183 60//184 
usemtl material1
f 52//185 62//187 61//188 
usemtl material1
f 53//189 63//191 62//192 
usemtl material1
f 55//193 65//195 64//196 
usemtl material1
f 56//197 66//199 65//200 
usemtl material1
f 57//201 67//203 66//204 
usemtl material1
f 58//205 68//207 67//208 
usemtl material1
f 59//209 69//211 68//212 
usemtl material1
f 60//213 70//215 69//216 
usemtl material1
f 61//217 71//219 70//220 
usemtl material1
f 62//221 72//223 71//224 
usemtl material1
f 64//225 74//227 73//228 
usemtl material1
f 65//229 75//231 74//232 
usemtl material1
f 66//233 76//235 75//236 
usemtl material1
f 67//237 77//239 76//240 
usemtl material1
f 68//241 78//243 77//244 
usemtl material1
f 69//245 79//247 78//248 
usemtl material1
f 70//249 80//251 79//252 
usemtl material1
f 71//253 81//255 80//256 
usemtl material1
f 2//2 11//258 1//257 
usemtl material1
f 3//6 12//260 2//259 
usemtl material1
f 4//10 13//262 3//261 
usemtl material1
f 5//14 14//264 4//263 
usemtl material1
f 6//18 15//266 5//265 
usemtl material1
f 7//22 16//268 6//267 
usemtl material1
f 8//26 17//270 7//269 
usemtl material1
f 9//30 18//272 8//271 
usemtl material1
f 11//34 20//274 10//273 
usemtl material1
f 12//38 21//276 11//275 
usemtl material1
f 13//42 22//278 12//277 
usemtl material1
f 14//46 23//280 13//279 
usemtl material1
f 15//50 24//282 14//281 
usemtl material1
f 16//54 25//284 15//283 
usemtl material1
f 17//58 26//286 16//285 
usemtl material1
f 18//62 27//288 17//287 
usemtl material1
f 20//66 29//290 19//289 
usemtl material1
f 21//70 30//292 20//291 
usemtl material1
f 22//74 31//294 21//293 
usemtl material1
f 23//78 32//296 22//295 
usemtl material1
f 24//82 33//298 23//297 
usemtl material1
f 25//86 34//300 24//299 
usemtl material1
f 26//90 35//302 25//301 
usemtl material1
f 27//94 36//304 26//303 
usemtl material1
f 29//98 38//306 28//305 
usemtl material1
f 30//102 39//308 29//307 
usemtl material1
f 31//106 40//310 30//309 
usemtl material1
f 32//110 41//312 31//311 
usemtl material1
f 33//114 42//314 32//313 
usemtl material1
f 34//118 43//316 33//315 
usemtl material1
f 35//122 44//318 34//317 
usemtl material1
f 36//126 45//320 35//319 
usemtl material1
f 38//130 47//322 37//321 
usemtl material1
f 39//134 48//324 38//323 
usemtl material1
f 40//138 49//326 39//325 
usemtl material1
f 41//142 50//328 40//327 
usemtl material1
f 42//146 51//330 41//329 
usemtl material1
f 43//150 52//332 42//331 
usemtl material1
f 44//154 53//334 43//333 
usemtl material1
f 45//158 54//336 44//335 
usemtl material1
f 47//162 56//338 46//337 
usemtl material1
f 48//166 57//340 47//339 
usemtl material1
f 49//170 58//342 48//341 
usemtl material1
f 50//174 59//344 49//343 
usemtl material1
f 51//178 60//346 50//345 
usemtl material1
f 52//182 61//348 51//347 
usemtl material1
f 53//186 62//350 52//349 
usemtl material1
f 54//190 63//352 53//351 
usemtl material1
f 56//194 65//354 55//353 
usemtl material1
f 57//198 66//356 56//355 
usemtl material1
f 58//202 67//358 57//357 
usemtl material1
f 59//206 68//360 58//359 
usemtl material1
f 60//210 69//362 59//361 
usemtl material1
f 61//214 70//364 60//363 
usemtl material1
f 62//218 71//366 61//365 
usemtl material1
f 63//222 72//368 62//367 
usemtl material1
f 65//226 74//370 64//369 
usemtl material1
f 66//230 75//372 65//371 
usemtl material1
f 67//234 76//374 66//373 
usemtl material1
f 68//238 77//376 67//375 
usemtl material1
f 69//242 78//378 68//377 
usemtl material1
f 70//246 79//380 69//379 
usemtl material1
f 71//250 80//382 70//381 
usemtl material1
f 72//254 81//384 71//383 
#end 128 faces
